<svg width="1024" height="1024" viewBox="0 0 1024 1024" fill="none" xmlns="http://www.w3.org/2000/svg">
<path d="M48.7619 536.381C48.7619 267.076 267.076 48.7617 536.381 48.7617V48.7617C805.686 48.7617 1024 267.076 1024 536.381V536.381C1024 805.685 805.686 1024 536.381 1024H48.7619V536.381Z" fill="#008FFF"/>
<path d="M0 487.619C0 218.314 218.314 0 487.619 0V0C756.924 0 975.238 218.314 975.238 487.619V487.619C975.238 756.924 756.924 975.238 487.619 975.238H0V487.619Z" fill="#0DB2FF"/>
<path d="M633.905 263.314V592.062C633.905 642.956 618.416 682.158 587.438 709.668C556.951 737.178 515.647 750.933 463.525 750.933C408.944 750.933 365.182 736.491 332.237 707.605C299.292 678.719 282.819 637.683 282.819 584.497H408.207C408.207 604.671 412.632 620.031 421.483 630.576C430.334 640.663 443.119 645.707 459.837 645.707C475.08 645.707 486.881 641.122 495.241 631.952C503.6 622.782 507.779 609.485 507.779 592.062V263.314H633.905Z" fill="white"/>
</svg>
