<?xml version="1.0" standalone="no"?>
<!DOCTYPE svg PUBLIC "-//W3C//DTD SVG 20010904//EN"
 "http://www.w3.org/TR/2001/REC-SVG-20010904/DTD/svg10.dtd">
<svg version="1.0" xmlns="http://www.w3.org/2000/svg"
 width="700.000000pt" height="700.000000pt" viewBox="0 0 700.000000 700.000000"
 preserveAspectRatio="xMidYMid meet">
<metadata>
Created by potrace 1.14, written by Peter Selinger 2001-2017
</metadata>
<g transform="translate(0.000000,700.000000) scale(0.100000,-0.100000)"
fill="#000000" stroke="none">
<path d="M2970 6985 c-762 -87 -1462 -425 -2000 -965 -540 -542 -875 -1245
-955 -2004 -13 -125 -15 -396 -15 -1916 l0 -1770 165 0 165 0 0 -165 0 -165
1770 0 c1945 0 1907 -1 2215 61 307 61 580 155 855 295 1014 512 1696 1501
1815 2628 17 167 20 505 5 657 -71 702 -344 1346 -791 1864 -136 158 -685 694
-809 789 -471 365 -996 589 -1588 677 -182 27 -646 35 -832 14z m1360 -2953
c0 -1203 -2 -1261 -41 -1417 -80 -312 -300 -550 -615 -664 -153 -56 -285 -75
-504 -76 -276 0 -447 34 -645 129 -270 129 -444 325 -529 596 -31 98 -56 247
-56 338 l0 62 424 0 423 0 6 -72 c11 -150 71 -252 181 -308 64 -33 74 -35 165
-35 82 1 104 5 151 26 70 32 116 79 149 149 l26 55 3 1193 2 1192 430 0 430 0
0 -1168z"/>
</g>
</svg>
